<?xml version="1.0" encoding="UTF-8" standalone="no"?>
<!-- Created with Inkscape (http://www.inkscape.org/) -->

<svg
   xmlns:dc="http://purl.org/dc/elements/1.1/"
   xmlns:cc="http://creativecommons.org/ns#"
   xmlns:rdf="http://www.w3.org/1999/02/22-rdf-syntax-ns#"
   xmlns:svg="http://www.w3.org/2000/svg"
   xmlns="http://www.w3.org/2000/svg"
   xmlns:sodipodi="http://sodipodi.sourceforge.net/DTD/sodipodi-0.dtd"
   xmlns:inkscape="http://www.inkscape.org/namespaces/inkscape"
   width="352.0802mm"
   height="32.683727mm"
   viewBox="0 0 1247.5283 115.80848"
   id="svg2"
   version="1.1"
   inkscape:version="0.91 r13725"
   sodipodi:docname="logo.svg">
  <defs
     id="defs4" />
  <sodipodi:namedview
     id="base"
     pagecolor="#ffffff"
     bordercolor="#666666"
     borderopacity="1.0"
     inkscape:pageopacity="0.0"
     inkscape:pageshadow="2"
     inkscape:zoom="0.62144379"
     inkscape:cx="879.03637"
     inkscape:cy="51.291534"
     inkscape:document-units="px"
     inkscape:current-layer="layer1"
     showgrid="false"
     fit-margin-top="0"
     fit-margin-left="0"
     fit-margin-right="0"
     fit-margin-bottom="0"
     inkscape:window-width="1366"
     inkscape:window-height="705"
     inkscape:window-x="-8"
     inkscape:window-y="-8"
     inkscape:window-maximized="1" />
  <metadata
     id="metadata7">
    <rdf:RDF>
      <cc:Work
         rdf:about="">
        <dc:format>image/svg+xml</dc:format>
        <dc:type
           rdf:resource="http://purl.org/dc/dcmitype/StillImage" />
        <dc:title></dc:title>
      </cc:Work>
    </rdf:RDF>
  </metadata>
  <g
     inkscape:label="Layer 1"
     inkscape:groupmode="layer"
     id="layer1"
     transform="translate(-1.5203061,-58.221013)">
    <rect
       style="fill:#214478;fill-opacity:1;stroke:#000000;stroke-width:1.12309849;stroke-miterlimit:4;stroke-dasharray:none;stroke-dashoffset:0;stroke-opacity:1"
       id="rect4136"
       width="1246.4052"
       height="114.68539"
       x="2.0818553"
       y="58.782562" />
    <flowRoot
       xml:space="preserve"
       id="flowRoot4147"
       style="font-style:normal;font-weight:normal;font-size:15px;line-height:125%;font-family:sans-serif;letter-spacing:0px;word-spacing:0px;fill:#000000;fill-opacity:1;stroke:none;stroke-width:1px;stroke-linecap:butt;stroke-linejoin:miter;stroke-opacity:1"><flowRegion
         id="flowRegion4149"><rect
           id="rect4151"
           width="143.36848"
           height="17.067677"
           x="252.60161"
           y="104.53722" /></flowRegion><flowPara
         id="flowPara4153"></flowPara></flowRoot>    <text
       xml:space="preserve"
       style="font-style:normal;font-variant:normal;font-weight:normal;font-stretch:normal;font-size:45px;line-height:125%;font-family:'Segoe Print';-inkscape-font-specification:'Segoe Print';letter-spacing:0px;word-spacing:0px;fill:#d5e5ff;fill-opacity:1;stroke:none;stroke-width:1px;stroke-linecap:butt;stroke-linejoin:miter;stroke-opacity:1"
       x="274.2207"
       y="113.63996"
       id="text4155"
       sodipodi:linespacing="125%"><tspan
         sodipodi:role="line"
         id="tspan4157"
         x="274.2207"
         y="113.63996">Restaurant reviews</tspan></text>
    <text
       xml:space="preserve"
       style="font-style:normal;font-weight:normal;font-size:22.5px;line-height:125%;font-family:sans-serif;letter-spacing:0px;word-spacing:0px;fill:#d5e5ff;fill-opacity:1;stroke:none;stroke-width:1px;stroke-linecap:butt;stroke-linejoin:miter;stroke-opacity:1"
       x="312.90741"
       y="143.22397"
       id="text4159"
       sodipodi:linespacing="125%"><tspan
         sodipodi:role="line"
         id="tspan4161"
         x="312.90741"
         y="143.22397"
         style="font-style:normal;font-variant:normal;font-weight:500;font-stretch:normal;font-size:22.5px;font-family:'Brush Script Std';-inkscape-font-specification:'Brush Script Std Medium';fill:#d5e5ff">The newest restaurants and cafés reviewed by guests!</tspan></text>
    <g
       id="g4223"
       transform="matrix(0.15308281,0,0,0.14706189,789.92965,73.539723)"
       style="fill:#d5e5ff">
      <g
         id="g4164"
         style="fill:#d5e5ff">
        <g
           id="Layer_1_144_"
           style="fill:#d5e5ff">
          <g
             id="g4167"
             style="fill:#d5e5ff">
            <path
               id="path4169"
               d="m 264.563,494.699 c 7.65,1.275 15.3,1.275 24.225,1.275 8.925,0 17.85,0 26.775,-1.275 l 3.825,-124.949 c -7.65,-3.824 -15.3,-8.926 -21.675,-15.301 -11.476,-12.75 -17.851,-29.324 -16.575,-47.174 l 6.375,-85.425 c -7.65,10.2 -17.85,17.85 -30.6,22.95 l 7.65,249.899 z"
               inkscape:connector-curvature="0"
               style="fill:#d5e5ff" />
            <path
               id="path4171"
               d="m 446.888,49.725 0,54.825 c 52.274,44.625 85.425,110.925 85.425,184.875 0,73.949 -33.15,140.25 -85.425,184.875 l 0,54.824 c 77.774,-51 128.774,-138.975 128.774,-239.699 10e-4,-100.725 -50.999,-188.7 -128.774,-239.7 z"
               inkscape:connector-curvature="0"
               style="fill:#d5e5ff" />
            <path
               id="path4173"
               d="m 297.713,30.6 0,14.025 c 1.274,0 2.55,0 5.1,0 5.1,-16.575 15.3,-30.6 29.325,-40.8 C 318.113,1.275 302.813,0 288.788,0 c -1.275,0 -3.825,0 -5.1,0 7.65,8.925 14.025,19.125 14.025,30.6 z"
               inkscape:connector-curvature="0"
               style="fill:#d5e5ff" />
            <path
               id="path4175"
               d="m 446.888,156.825 0,22.95 0,169.575 0,71.4 c 30.6,-35.699 48.45,-81.6 48.45,-132.6 -1.275,-48.45 -17.85,-95.625 -48.45,-131.325 z"
               inkscape:connector-curvature="0"
               style="fill:#d5e5ff" />
            <path
               id="path4177"
               d="m 105.188,192.525 c -15.3,29.325 -24.225,61.2 -24.225,95.625 0,54.824 21.675,104.549 56.1,141.525 l 6.375,-187.426 c -20.4,-6.374 -35.7,-25.499 -38.25,-49.724 z"
               inkscape:connector-curvature="0"
               style="fill:#d5e5ff" />
            <path
               id="path4179"
               d="m 313.013,535.5 0,-3.824 c -8.925,1.273 -16.575,1.273 -25.5,1.273 -7.65,0 -15.3,0 -22.95,-1.273 l 0,3.824 c 0,14.025 -5.1,28.051 -14.025,38.25 11.475,1.275 24.225,2.551 35.7,2.551 12.75,0 25.5,-1.275 38.25,-2.551 -6.375,-10.199 -11.475,-24.225 -11.475,-38.25 z"
               inkscape:connector-curvature="0"
               style="fill:#d5e5ff" />
            <path
               id="path4181"
               d="m 43.988,289.426 c 0,-61.201 22.95,-118.576 61.2,-160.651 l 0,-61.2 c -63.75,52.275 -104.55,132.6 -104.55,221.851 0,102 53.55,192.523 133.875,243.523 l 1.275,-52.273 c -54.825,-44.625 -91.8,-114.75 -91.8,-191.25 z"
               inkscape:connector-curvature="0"
               style="fill:#d5e5ff" />
            <path
               id="path4183"
               d="m 386.963,11.475 0,0 c -33.15,0 -61.2,25.5 -63.75,58.65 l -16.575,238.426 c -1.275,10.199 2.55,20.398 10.2,28.049 7.649,7.65 16.574,12.75 28.05,12.75 l 1.274,0 -6.375,187.426 c 0,7.65 2.551,15.299 8.926,21.674 5.1,6.375 12.75,8.926 21.675,8.926 l 21.675,0 c 16.575,0 29.325,-14.025 29.325,-29.324 l 0,-188.702 0,-169.575 0,-133.875 c 0,-19.125 -15.3,-34.425 -34.425,-34.425 z"
               inkscape:connector-curvature="0"
               style="fill:#d5e5ff" />
            <path
               id="path4185"
               d="m 231.413,221.85 6.375,0 c 19.125,0 35.7,-15.3 35.7,-34.425 l 0,-156.825 c 0,-6.375 -5.1,-11.475 -11.475,-11.475 l -2.55,0 c -6.375,0 -10.2,5.1 -10.2,11.475 l 0,103.275 c 0,8.925 -7.65,16.575 -16.575,16.575 l -2.55,0 c -8.925,0 -16.575,-7.65 -16.575,-16.575 l 0,-103.275 c 0,-6.375 -5.1,-11.475 -10.2,-11.475 l -2.55,0 c -6.375,0 -11.475,5.1 -11.475,11.475 l 0,103.275 c 0,8.925 -7.65,16.575 -16.575,16.575 l -2.55,0 c -8.925,0 -16.575,-7.65 -16.575,-16.575 l 0,-103.275 c 0,-6.375 -5.1,-11.475 -10.2,-11.475 l -2.55,0 c -6.375,0 -10.2,5.1 -10.2,11.475 l 0,156.825 c 0,19.125 15.3,34.425 34.425,34.425 l 5.1,0 -10.2,314.925 c 0,7.65 2.55,15.299 7.65,21.674 5.1,5.102 12.75,8.926 20.4,8.926 l 22.95,0 c 7.65,0 15.3,-3.824 20.4,-8.926 5.1,-5.1 8.925,-14.023 7.65,-21.674 l -7.65,-314.925 z"
               inkscape:connector-curvature="0"
               style="fill:#d5e5ff" />
          </g>
        </g>
      </g>
      <g
         id="g4187"
         style="fill:#d5e5ff" />
      <g
         id="g4189"
         style="fill:#d5e5ff" />
      <g
         id="g4191"
         style="fill:#d5e5ff" />
      <g
         id="g4193"
         style="fill:#d5e5ff" />
      <g
         id="g4195"
         style="fill:#d5e5ff" />
      <g
         id="g4197"
         style="fill:#d5e5ff" />
      <g
         id="g4199"
         style="fill:#d5e5ff" />
      <g
         id="g4201"
         style="fill:#d5e5ff" />
      <g
         id="g4203"
         style="fill:#d5e5ff" />
      <g
         id="g4205"
         style="fill:#d5e5ff" />
      <g
         id="g4207"
         style="fill:#d5e5ff" />
      <g
         id="g4209"
         style="fill:#d5e5ff" />
      <g
         id="g4211"
         style="fill:#d5e5ff" />
      <g
         id="g4213"
         style="fill:#d5e5ff" />
      <g
         id="g4215"
         style="fill:#d5e5ff" />
    </g>
    <g
       id="g4298"
       transform="matrix(0.14055348,0,0,0.15137258,175.54219,72.663511)"
       style="fill:#d5e5ff">
      <g
         id="g4253"
         style="fill:#d5e5ff">
        <g
           id="Layer_1_145_"
           style="fill:#d5e5ff">
          <g
             id="g4256"
             style="fill:#d5e5ff">
            <path
               id="path4258"
               d="M 466.65,355.725 C 429.674,413.1 364.65,450.076 291.975,450.076 219.3,450.076 154.275,413.1 117.3,355.725 45.9,371.024 0,393.975 0,420.75 c 0,44.625 131.325,80.325 291.975,80.325 160.65,0 291.975,-35.7 291.975,-80.325 0,-26.775 -45.9,-49.726 -117.3,-65.025 z"
               inkscape:connector-curvature="0"
               style="fill:#d5e5ff" />
            <path
               id="path4260"
               d="m 291.975,411.825 c 76.5,0 142.8,-51 164.475,-119.851 12.75,6.375 25.5,10.2 40.8,10.2 49.725,0 89.25,-40.8 89.25,-89.25 0,-48.45 -40.8,-90.524 -89.25,-90.524 -11.475,0 -22.95,2.55 -33.15,6.375 -3.824,-24.225 -25.5,-43.35 -51,-43.35 l -240.975,0 c -28.05,0 -52.275,22.95 -52.275,52.275 l 0,103.275 c 0,94.35 77.775,170.85 172.125,170.85 z m 205.275,-239.7 c 21.675,0 39.525,17.85 39.525,39.525 0,21.675 -17.851,39.525 -39.525,39.525 -14.025,0 -25.5,-7.65 -33.15,-17.85 l 0,-43.35 c 6.375,-10.2 19.125,-17.85 33.15,-17.85 z"
               inkscape:connector-curvature="0"
               style="fill:#d5e5ff" />
          </g>
        </g>
      </g>
      <g
         id="g4262"
         style="fill:#d5e5ff" />
      <g
         id="g4264"
         style="fill:#d5e5ff" />
      <g
         id="g4266"
         style="fill:#d5e5ff" />
      <g
         id="g4268"
         style="fill:#d5e5ff" />
      <g
         id="g4270"
         style="fill:#d5e5ff" />
      <g
         id="g4272"
         style="fill:#d5e5ff" />
      <g
         id="g4274"
         style="fill:#d5e5ff" />
      <g
         id="g4276"
         style="fill:#d5e5ff" />
      <g
         id="g4278"
         style="fill:#d5e5ff" />
      <g
         id="g4280"
         style="fill:#d5e5ff" />
      <g
         id="g4282"
         style="fill:#d5e5ff" />
      <g
         id="g4284"
         style="fill:#d5e5ff" />
      <g
         id="g4286"
         style="fill:#d5e5ff" />
      <g
         id="g4288"
         style="fill:#d5e5ff" />
      <g
         id="g4290"
         style="fill:#d5e5ff" />
    </g>
  </g>
</svg>
